<svg width="20" height="20" viewBox="0 0 20 20" fill="none" xmlns="http://www.w3.org/2000/svg">
<path fill-rule="evenodd" clip-rule="evenodd" d="M5.00001 4.79167C4.42471 4.79167 3.95834 5.25804 3.95834 5.83333V15.8333C3.95834 16.4086 4.42471 16.875 5.00001 16.875H15C15.5753 16.875 16.0417 16.4086 16.0417 15.8333V5.83333C16.0417 5.25804 15.5753 4.79167 15 4.79167H5.00001ZM2.70834 5.83333C2.70834 4.56768 3.73436 3.54167 5.00001 3.54167H15C16.2657 3.54167 17.2917 4.56768 17.2917 5.83333V15.8333C17.2917 17.099 16.2657 18.125 15 18.125H5.00001C3.73436 18.125 2.70834 17.099 2.70834 15.8333V5.83333Z" fill="#A0AEC0"/>
<path fill-rule="evenodd" clip-rule="evenodd" d="M13.3333 1.875C13.6785 1.875 13.9583 2.15482 13.9583 2.5V5.83333C13.9583 6.17851 13.6785 6.45833 13.3333 6.45833C12.9882 6.45833 12.7083 6.17851 12.7083 5.83333V2.5C12.7083 2.15482 12.9882 1.875 13.3333 1.875Z" fill="#A0AEC0"/>
<path fill-rule="evenodd" clip-rule="evenodd" d="M6.66668 1.875C7.01185 1.875 7.29168 2.15482 7.29168 2.5V5.83333C7.29168 6.17851 7.01185 6.45833 6.66668 6.45833C6.3215 6.45833 6.04168 6.17851 6.04168 5.83333V2.5C6.04168 2.15482 6.3215 1.875 6.66668 1.875Z" fill="#A0AEC0"/>
<path fill-rule="evenodd" clip-rule="evenodd" d="M2.70834 9.16667C2.70834 8.82149 2.98817 8.54167 3.33334 8.54167H16.6667C17.0119 8.54167 17.2917 8.82149 17.2917 9.16667C17.2917 9.51184 17.0119 9.79167 16.6667 9.79167H3.33334C2.98817 9.79167 2.70834 9.51184 2.70834 9.16667Z" fill="#A0AEC0"/>
<path fill-rule="evenodd" clip-rule="evenodd" d="M8.33334 12.5C8.33334 12.0398 8.70644 11.6667 9.16668 11.6667H10C10.4602 11.6667 10.8333 12.0398 10.8333 12.5C10.8333 12.9602 10.4602 13.3333 10 13.3333H9.16668C8.70644 13.3333 8.33334 12.9602 8.33334 12.5Z" fill="#A0AEC0"/>
<path fill-rule="evenodd" clip-rule="evenodd" d="M10 11.875C10.3452 11.875 10.625 12.1548 10.625 12.5V15C10.625 15.3452 10.3452 15.625 10 15.625C9.65483 15.625 9.37501 15.3452 9.37501 15V12.5C9.37501 12.1548 9.65483 11.875 10 11.875Z" fill="#A0AEC0"/>
</svg>
