<svg width="18" height="16" viewBox="0 0 18 16" fill="none" xmlns="http://www.w3.org/2000/svg">
<path fill-rule="evenodd" clip-rule="evenodd" d="M0.0416565 5.08319C0.0416565 4.73801 0.321479 4.45819 0.666656 4.45819H11.0833C11.4285 4.45819 11.7083 4.73801 11.7083 5.08319C11.7083 5.42837 11.4285 5.70819 11.0833 5.70819H0.666656C0.321479 5.70819 0.0416565 5.42837 0.0416565 5.08319Z" fill="#A0AEC0"/>
<path fill-rule="evenodd" clip-rule="evenodd" d="M3.37499 11.7499C3.37499 11.4047 3.65481 11.1249 3.99999 11.1249H5.66666C6.01183 11.1249 6.29166 11.4047 6.29166 11.7499C6.29166 12.095 6.01183 12.3749 5.66666 12.3749H3.99999C3.65481 12.3749 3.37499 12.095 3.37499 11.7499Z" fill="#A0AEC0"/>
<path fill-rule="evenodd" clip-rule="evenodd" d="M7.12499 11.7499C7.12499 11.4047 7.40481 11.1249 7.74999 11.1249H11.0833C11.4285 11.1249 11.7083 11.4047 11.7083 11.7499C11.7083 12.095 11.4285 12.3749 11.0833 12.3749H7.74999C7.40481 12.3749 7.12499 12.095 7.12499 11.7499Z" fill="#A0AEC0"/>
<path fill-rule="evenodd" clip-rule="evenodd" d="M1.84671 2.09325C1.4925 2.44348 1.29166 3.10917 1.29166 4.57486V11.4249C1.29166 12.8905 1.4925 13.5562 1.84671 13.9065C2.2034 14.2591 2.88249 14.4582 4.36666 14.4582H13.6333C15.1175 14.4582 15.7966 14.2591 16.1533 13.9065C16.5075 13.5562 16.7083 12.8905 16.7083 11.4249V9.69152C16.7083 9.34634 16.9881 9.06652 17.3333 9.06652C17.6785 9.06652 17.9583 9.34634 17.9583 9.69152V11.4249C17.9583 12.8842 17.7883 14.0476 17.0321 14.7953C16.2784 15.5406 15.1075 15.7082 13.6333 15.7082H4.36666C2.89249 15.7082 1.72158 15.5406 0.967849 14.7953C0.211651 14.0476 0.0416565 12.8842 0.0416565 11.4249V4.57486C0.0416565 3.11554 0.21165 1.95206 0.967848 1.20438C1.72158 0.459126 2.89249 0.291522 4.36666 0.291522H11.0833C11.4285 0.291522 11.7083 0.571344 11.7083 0.916522C11.7083 1.2617 11.4285 1.54152 11.0833 1.54152H4.36666C2.88249 1.54152 2.2034 1.74058 1.84671 2.09325Z" fill="#A0AEC0"/>
<path fill-rule="evenodd" clip-rule="evenodd" d="M15.4275 0.339097C15.661 0.242359 15.9299 0.295832 16.1086 0.47458L17.7753 2.14125C18.0193 2.38532 18.0193 2.78105 17.7753 3.02513C17.5312 3.26921 17.1355 3.26921 16.8914 3.02513L16.2917 2.42541V5.91652C16.2917 6.2617 16.0118 6.54152 15.6667 6.54152C15.3215 6.54152 15.0417 6.2617 15.0417 5.91652V0.916522C15.0417 0.663733 15.1939 0.435836 15.4275 0.339097Z" fill="#A0AEC0"/>
<path fill-rule="evenodd" clip-rule="evenodd" d="M16.1086 0.47458C16.3527 0.718658 16.3527 1.11439 16.1086 1.35846L14.4419 3.02513C14.1979 3.26921 13.8021 3.26921 13.558 3.02513C13.314 2.78105 13.314 2.38532 13.558 2.14125L15.2247 0.47458C15.4688 0.230503 15.8645 0.230503 16.1086 0.47458Z" fill="#A0AEC0"/>
</svg>
