<svg width="27" height="16" viewBox="0 0 27 16" fill="none" xmlns="http://www.w3.org/2000/svg">
<path fill-rule="evenodd" clip-rule="evenodd" d="M10.4714 3.52876C10.7317 3.78911 10.7317 4.21122 10.4714 4.47157L6.9428 8.00016L10.4714 11.5288C10.7317 11.7891 10.7317 12.2112 10.4714 12.4716C10.2111 12.7319 9.78894 12.7319 9.52859 12.4716L5.52859 8.47157C5.26824 8.21122 5.26824 7.78911 5.52859 7.52876L9.52859 3.52876C9.78894 3.26841 10.2111 3.26841 10.4714 3.52876Z" fill="#111827"/>
<path fill-rule="evenodd" clip-rule="evenodd" d="M21.4714 3.52876C21.7317 3.78911 21.7317 4.21122 21.4714 4.47157L17.9428 8.00016L21.4714 11.5288C21.7317 11.7891 21.7317 12.2112 21.4714 12.4716C21.2111 12.7319 20.7889 12.7319 20.5286 12.4716L16.5286 8.47157C16.2682 8.21122 16.2682 7.78911 16.5286 7.52876L20.5286 3.52876C20.7889 3.26841 21.2111 3.26841 21.4714 3.52876Z" fill="#111827"/>
</svg>
