<svg width="16" height="17" viewBox="0 0 16 17" fill="none" xmlns="http://www.w3.org/2000/svg">
<path fill-rule="evenodd" clip-rule="evenodd" d="M8.00002 6.61331C6.95616 6.61331 6.11335 7.45612 6.11335 8.49998C6.11335 9.54384 6.95616 10.3866 8.00002 10.3866C9.04388 10.3866 9.88668 9.54384 9.88668 8.49998C9.88668 7.45612 9.04388 6.61331 8.00002 6.61331ZM5.11335 8.49998C5.11335 6.90384 6.40388 5.61331 8.00002 5.61331C9.59616 5.61331 10.8867 6.90384 10.8867 8.49998C10.8867 10.0961 9.59616 11.3866 8.00002 11.3866C6.40388 11.3866 5.11335 10.0961 5.11335 8.49998Z" fill="white"/>
<path fill-rule="evenodd" clip-rule="evenodd" d="M1.50501 6.49796C3.09896 3.99238 5.4347 2.47998 8.00002 2.47998C10.5654 2.47998 12.9013 3.99251 14.4952 6.49828C14.8585 7.06784 15.0234 7.79742 15.0234 8.49665C15.0234 9.19588 14.8586 9.92545 14.4952 10.495C12.9013 13.0008 10.5654 14.5133 8.00002 14.5133C5.43459 14.5133 3.09875 13.0008 1.50481 10.495C1.14149 9.92545 0.976685 9.19588 0.976685 8.49665C0.976685 7.79728 1.14155 7.06756 1.50501 6.49796ZM8.00002 3.47998C5.85878 3.47998 3.80795 4.74078 2.34856 7.03501L2.34815 7.03566C2.11176 7.40601 1.97668 7.93614 1.97668 8.49665C1.97668 9.05715 2.11176 9.58729 2.34815 9.95763L2.34856 9.95829C3.80795 12.2525 5.85878 13.5133 8.00002 13.5133C10.1413 13.5133 12.1921 12.2525 13.6515 9.95829L13.6519 9.95763C13.8883 9.58729 14.0234 9.05715 14.0234 8.49665C14.0234 7.93614 13.8883 7.40601 13.6519 7.03566L13.6515 7.03501C12.1921 4.74078 10.1413 3.47998 8.00002 3.47998Z" fill="white"/>
</svg>
