<svg width="24" height="24" viewBox="0 0 24 24" fill="none" xmlns="http://www.w3.org/2000/svg">
<path d="M16.6537 7.34625C16.5841 7.27651 16.5014 7.22119 16.4103 7.18345C16.3193 7.14571 16.2217 7.12628 16.1231 7.12628C16.0245 7.12628 15.9269 7.14571 15.8359 7.18345C15.7448 7.22119 15.6621 7.27651 15.5925 7.34625L12 10.9425L8.40372 7.34625C8.26299 7.20552 8.07212 7.12645 7.8731 7.12645C7.67408 7.12645 7.4832 7.20552 7.34247 7.34625C7.20174 7.48698 7.12268 7.67785 7.12268 7.87687C7.12268 8.07589 7.20174 8.26677 7.34247 8.4075L10.9387 12L7.34247 15.5962C7.20174 15.737 7.12268 15.9278 7.12268 16.1269C7.12268 16.3259 7.20174 16.5168 7.34247 16.6575C7.4832 16.7982 7.67408 16.8773 7.8731 16.8773C8.07212 16.8773 8.26299 16.7982 8.40372 16.6575L12 13.0612L15.5962 16.6575C15.737 16.7982 15.9278 16.8773 16.1268 16.8773C16.3259 16.8773 16.5167 16.7982 16.6575 16.6575C16.7982 16.5168 16.8773 16.3259 16.8773 16.1269C16.8773 15.9278 16.7982 15.737 16.6575 15.5962L13.0612 12L16.6575 8.40375C16.7967 8.26273 16.8744 8.07236 16.8737 7.87422C16.873 7.67608 16.7939 7.48627 16.6537 7.34625Z" fill="#FF4040"/>
<path d="M12 1.125C9.84913 1.125 7.74656 1.76281 5.95818 2.95777C4.16979 4.15273 2.77592 5.85117 1.95281 7.83832C1.12971 9.82546 0.914351 12.0121 1.33396 14.1216C1.75358 16.2312 2.78932 18.1689 4.31022 19.6898C5.83111 21.2107 7.76885 22.2464 9.8784 22.666C11.9879 23.0857 14.1745 22.8703 16.1617 22.0472C18.1488 21.2241 19.8473 19.8302 21.0422 18.0418C22.2372 16.2534 22.875 14.1509 22.875 12C22.875 9.11577 21.7292 6.34967 19.6898 4.31021C17.6503 2.27076 14.8842 1.125 12 1.125ZM12 21.375C10.1458 21.375 8.33325 20.8252 6.79153 19.795C5.24982 18.7649 4.04821 17.3007 3.33863 15.5877C2.62906 13.8746 2.44341 11.9896 2.80514 10.171C3.16688 8.35246 4.05976 6.68199 5.37088 5.37087C6.682 4.05976 8.35246 3.16687 10.171 2.80514C11.9896 2.4434 13.8746 2.62906 15.5877 3.33863C17.3007 4.0482 18.7649 5.24982 19.795 6.79153C20.8252 8.33324 21.375 10.1458 21.375 12C21.375 13.2311 21.1325 14.4502 20.6614 15.5877C20.1902 16.7251 19.4997 17.7586 18.6291 18.6291C17.7586 19.4997 16.7251 20.1902 15.5877 20.6614C14.4502 21.1325 13.2311 21.375 12 21.375Z" fill="#FF4040"/>
</svg>
