<svg width="1600" height="573" viewBox="0 0 1600 573" fill="none" xmlns="http://www.w3.org/2000/svg">
<path d="M290.115 611.84C287.241 610.769 287.323 606.568 290.198 605.333C298.247 601.956 313.771 595.284 319.274 591.66C334.799 581.529 326.667 546.194 370.282 545.123C390.652 544.629 405.191 539.605 420.879 527.415C422.604 526.097 424.247 524.779 426.054 523.708C439.771 515.554 461.702 516.789 477.801 523.296C486.097 526.673 493.982 531.862 500.964 538.452C504.085 541.417 510.738 545.947 517.966 558.796C520.02 562.503 521.334 566.621 521.991 570.739C523.47 579.964 535.873 588.283 530.78 598.085C529.63 600.391 527.577 602.038 526.016 604.015C519.938 611.346 519.116 621.477 513.449 628.972C507.371 637.044 497.103 644.21 488.972 650.058C476.98 658.706 462.195 658.459 448.724 653.764C411.187 640.586 410.858 633.09 392.049 626.501C373.239 619.912 356.565 631.443 348.187 620.076C343.177 613.24 335.702 600.309 327.899 598.826C323.381 598.002 307.939 600.803 292.826 611.181C291.923 612.087 290.937 612.087 290.115 611.84Z" fill="#A3CEB7"/>
<path d="M1464.76 639.425C1465.96 643.025 1461.86 646.225 1458.46 644.325C1449.06 639.225 1430.66 629.425 1422.86 626.825C1401.16 619.725 1373.46 654.725 1338.76 613.525C1322.56 594.325 1306.46 584.125 1282.66 578.425C1280.06 577.825 1277.56 577.225 1275.06 576.325C1256.56 569.325 1240.86 547.325 1234.66 526.825C1231.46 516.225 1230.36 504.625 1231.36 492.825C1231.76 487.425 1231.06 477.625 1237.76 460.725C1239.66 455.825 1242.66 451.525 1246.16 447.625C1253.86 439.125 1252.26 420.825 1265.66 418.025C1268.76 417.425 1271.96 418.025 1275.06 418.125C1286.76 418.325 1297.16 411.325 1308.76 411.025C1321.26 410.625 1335.96 415.025 1347.96 418.325C1365.56 423.225 1376.76 437.625 1382.66 454.225C1399.06 500.525 1392.06 506.625 1400.26 529.725C1408.46 552.925 1432.46 560.125 1428.06 576.925C1425.36 587.025 1418.66 604.225 1423.26 612.825C1425.96 617.825 1440.56 630.525 1462.16 637.025C1463.56 637.625 1464.36 638.425 1464.76 639.425Z" fill="#A3CEB7"/>
<path d="M1700.02 361C1699.12 365.6 1692.72 366.4 1690.22 362.4C1683.32 351.1 1669.92 329.2 1663.22 321.6C1644.52 300.5 1593.22 320.6 1581.82 255.1C1576.52 224.5 1565.72 203.7 1543.92 182.8C1541.52 180.6 1539.22 178.3 1537.22 175.8C1521.82 156.9 1518.82 123.6 1525.02 97.9001C1528.22 84.6001 1534.32 71.6001 1542.62 59.6001C1546.42 54.2001 1551.72 43.2001 1569.42 29.4001C1574.52 25.4001 1580.42 22.6001 1586.52 20.7001C1600.02 16.4001 1609.72 -4.09992 1625.72 1.30008C1629.42 2.50008 1632.42 5.2001 1635.72 7.2001C1648.02 14.7001 1663.42 13.7001 1676.02 20.5001C1689.62 27.9001 1702.62 41.7001 1713.22 52.7001C1728.92 68.9001 1731.92 91.2001 1727.82 112.5C1716.42 172.1 1705.22 174.2 1699.52 204C1693.82 233.8 1714.92 256.4 1699.72 271.6C1690.62 280.7 1672.72 294.8 1672.22 306.9C1671.92 314 1679.62 336.5 1698.62 357C1700.02 358.3 1700.22 359.7 1700.02 361Z" fill="#A3CEB7"/>
<path d="M274.015 365.325C221.145 354.694 204.249 154.697 55.2238 282.555C-10.2713 338.747 -41.1204 264.33 -77.8546 307.329C-98.3574 331.249 -223.178 373.204 -139.363 468.694C-78.2343 538.46 -146.672 594.273 -101.68 636.893C14.503 746.81 15.3572 689.858 76.486 725.738C162.579 776.331 188.492 771.774 272.686 735.515C298.79 724.314 234.813 641.164 325.652 618.668C414.687 596.741 359.254 382.411 274.015 365.325Z" fill="#E9C2B7"/>
<path d="M125.465 472.68C103.538 448.57 84.7442 403.483 49.2439 437.465C40.2265 446.102 36.3348 458.062 40.2265 465.086C55.9833 493.658 97.0838 543.586 147.107 520.235C150.524 508.085 140.652 489.386 125.465 472.68Z" fill="#F4F3F1"/>
<path d="M80.7105 418.614C82.8747 415.914 82.4407 411.972 79.7413 409.808C77.0419 407.643 73.0991 408.077 70.935 410.777C68.7708 413.476 69.2047 417.419 71.9041 419.583C74.6035 421.747 78.5463 421.313 80.7105 418.614Z" fill="#3E3F3F"/>
<path d="M136.855 447.811C134.387 450.279 130.401 450.184 128.028 447.716C125.56 445.248 125.655 441.261 128.123 438.888C130.591 436.42 134.577 436.515 136.95 438.983C139.323 441.356 139.323 445.343 136.855 447.811Z" fill="#3E3F3F"/>
<path d="M112.3 486.17C114.464 483.471 114.03 479.528 111.331 477.364C108.631 475.2 104.688 475.633 102.524 478.333C100.36 481.032 100.794 484.975 103.493 487.139C106.193 489.303 110.136 488.869 112.3 486.17Z" fill="#3E3F3F"/>
<path d="M84.2695 442.211C81.8015 444.679 77.8149 444.584 75.4419 442.116C72.9739 439.648 73.0689 435.661 75.5368 433.288C78.0047 430.82 81.9914 430.915 84.3644 433.383C86.7374 435.756 86.7374 439.743 84.2695 442.211Z" fill="#3E3F3F"/>
<path d="M133.723 485.02C131.255 487.488 127.268 487.393 124.895 484.925C122.428 482.457 122.522 478.47 124.99 476.097C127.458 473.629 131.445 473.724 133.818 476.192C136.191 478.66 136.191 482.647 133.723 485.02Z" fill="#3E3F3F"/>
<path d="M107.905 448.19C105.437 450.658 101.45 450.563 99.0771 448.095C96.6092 445.628 96.7041 441.641 99.172 439.268C101.64 436.8 105.627 436.895 108 439.363C110.373 441.831 110.373 445.817 107.905 448.19Z" fill="#3E3F3F"/>
<path d="M104.867 462.998C102.399 465.466 98.4128 465.371 96.0398 462.903C93.5718 460.435 93.6668 456.449 96.1347 454.076C98.6026 451.608 102.589 451.703 104.962 454.171C107.335 456.638 107.335 460.53 104.867 462.998Z" fill="#3E3F3F"/>
<path d="M127.339 461.641C127.358 458.181 124.568 455.361 121.108 455.343C117.649 455.324 114.829 458.114 114.81 461.574C114.791 465.033 117.581 467.853 121.041 467.872C124.501 467.891 127.321 465.101 127.339 461.641Z" fill="#3E3F3F"/>
<path d="M159.219 472.439C159.238 468.979 156.448 466.159 152.988 466.141C149.528 466.122 146.708 468.912 146.69 472.372C146.671 475.832 149.461 478.651 152.921 478.67C156.381 478.689 159.201 475.899 159.219 472.439Z" fill="#3E3F3F"/>
<path d="M1476.36 246.039C1453.42 283.908 1294.26 241.035 1351.28 391.825C1376.38 458.075 1310.22 461.095 1333.16 501.552C1345.93 524.067 1343.34 632.156 1440.56 594.114C1511.47 566.337 1535.54 634.917 1580.91 612.057C1698.32 553.052 1654.58 536.489 1699.35 499.396C1762.5 447.12 1766.21 425.813 1761.81 350.677C1760.43 327.385 1678.39 353.523 1686.41 277.094C1694.35 202.13 1513.37 185.05 1476.36 246.039Z" fill="#EFD9A1"/>
<path d="M1517.68 390.789C1492.92 400.969 1452.9 402.866 1469.2 439.874C1473.34 449.19 1481.45 455.574 1488.01 454.539C1514.49 450.312 1564.61 432.541 1560.47 387.425C1552.02 381.387 1534.85 383.716 1517.68 390.789Z" fill="#F4F3F1"/>
<path d="M1463.68 410.716C1464.89 413.304 1463.77 416.323 1461.18 417.531C1458.59 418.739 1455.57 417.617 1454.36 415.029C1453.16 412.441 1454.28 409.422 1456.87 408.214C1459.37 407.007 1462.47 408.128 1463.68 410.716Z" fill="#3E3F3F"/>
<path d="M1501.64 375.003C1502.84 377.591 1501.72 380.61 1499.14 381.818C1496.55 383.025 1493.53 381.904 1492.32 379.316C1491.11 376.728 1492.23 373.709 1494.82 372.501C1497.41 371.294 1500.43 372.415 1501.64 375.003Z" fill="#3E3F3F"/>
<path d="M1524.67 405.195C1525.88 407.783 1524.76 410.803 1522.17 412.01C1519.58 413.218 1516.56 412.097 1515.35 409.509C1514.15 406.921 1515.27 403.901 1517.86 402.694C1520.44 401.486 1523.46 402.694 1524.67 405.195Z" fill="#3E3F3F"/>
<path d="M1482.57 414.081C1483.78 416.669 1482.66 419.688 1480.07 420.896C1477.48 422.103 1474.46 420.982 1473.26 418.394C1472.05 415.806 1473.17 412.787 1475.76 411.579C1478.35 410.371 1481.37 411.493 1482.57 414.081Z" fill="#3E3F3F"/>
<path d="M1529.5 387.856C1530.71 390.444 1529.59 393.463 1527 394.671C1524.41 395.879 1521.39 394.757 1520.18 392.169C1518.98 389.581 1520.1 386.562 1522.69 385.355C1525.27 384.147 1528.29 385.268 1529.5 387.856Z" fill="#3E3F3F"/>
<path d="M1493.87 397.518C1495.08 400.106 1493.96 403.125 1491.37 404.333C1488.78 405.54 1485.76 404.419 1484.56 401.831C1483.35 399.243 1484.47 396.224 1487.06 395.016C1489.65 393.809 1492.67 394.93 1493.87 397.518Z" fill="#3E3F3F"/>
<path d="M1504.4 403.988C1505.61 406.576 1504.48 409.595 1501.9 410.803C1499.31 412.01 1496.29 410.889 1495.08 408.301C1493.87 405.713 1495 402.694 1497.58 401.486C1500.17 400.278 1503.19 401.4 1504.4 403.988Z" fill="#3E3F3F"/>
<path d="M1512.59 388.891C1513.8 391.479 1512.68 394.499 1510.09 395.706C1507.5 396.914 1504.48 395.793 1503.28 393.205C1502.07 390.617 1503.19 387.598 1505.78 386.39C1508.28 385.182 1511.39 386.304 1512.59 388.891Z" fill="#3E3F3F"/>
<path d="M1529.85 367.325C1531.05 369.913 1529.93 372.933 1527.34 374.14C1524.76 375.348 1521.74 374.227 1520.53 371.639C1519.32 369.051 1520.44 366.032 1523.03 364.824C1525.62 363.616 1528.64 364.738 1529.85 367.325Z" fill="#3E3F3F"/>
</svg>
