<svg width="20" height="20" viewBox="0 0 20 20" fill="none" xmlns="http://www.w3.org/2000/svg">
<path fill-rule="evenodd" clip-rule="evenodd" d="M17.9419 5.39155C18.186 5.63563 18.186 6.03136 17.9419 6.27544L11.2753 12.9421C11.0312 13.1862 10.6355 13.1862 10.3914 12.9421L7.5 10.0507L2.94194 14.6088C2.69786 14.8528 2.30214 14.8528 2.05806 14.6088C1.81398 14.3647 1.81398 13.969 2.05806 13.7249L7.05806 8.72489C7.30214 8.48081 7.69786 8.48081 7.94194 8.72489L10.8333 11.6163L17.0581 5.39155C17.3021 5.14748 17.6979 5.14748 17.9419 5.39155Z" fill="#A0AEC0"/>
<path fill-rule="evenodd" clip-rule="evenodd" d="M11.0417 5.8335C11.0417 5.48832 11.3215 5.2085 11.6667 5.2085H17.5C17.8452 5.2085 18.125 5.48832 18.125 5.8335V11.6668C18.125 12.012 17.8452 12.2918 17.5 12.2918C17.1548 12.2918 16.875 12.012 16.875 11.6668V6.4585H11.6667C11.3215 6.4585 11.0417 6.17867 11.0417 5.8335Z" fill="#A0AEC0"/>
</svg>
