<svg width="16" height="17" viewBox="0 0 16 17" fill="none" xmlns="http://www.w3.org/2000/svg">
<path fill-rule="evenodd" clip-rule="evenodd" d="M6.66669 3C6.62248 3 6.58009 3.01756 6.54884 3.04882C6.51758 3.08007 6.50002 3.12246 6.50002 3.16667V4.66667H9.50002V3.16667C9.50002 3.12246 9.48246 3.08007 9.4512 3.04882C9.41995 3.01756 9.37756 3 9.33335 3H6.66669ZM3.87675 5.66667L4.49829 13.1251C4.49944 13.139 4.50002 13.1528 4.50002 13.1667C4.50002 13.3877 4.58782 13.5996 4.7441 13.7559C4.90038 13.9122 5.11234 14 5.33335 14H10.6667C10.8877 14 11.0997 13.9122 11.2559 13.7559C11.4122 13.5996 11.5 13.3877 11.5 13.1667C11.5 13.1528 11.5006 13.139 11.5017 13.1251L12.1233 5.66667H3.87675ZM13.1268 5.66667L12.4999 13.1891C12.494 13.6672 12.3016 14.1245 11.963 14.463C11.6192 14.8068 11.1529 15 10.6667 15H5.33335C4.84712 15 4.38081 14.8068 4.03699 14.463C3.69847 14.1245 3.506 13.6672 3.50016 13.1891L2.87329 5.66667H2.66669C2.39054 5.66667 2.16669 5.44281 2.16669 5.16667C2.16669 4.89052 2.39054 4.66667 2.66669 4.66667H5.50002V3.16667C5.50002 2.85725 5.62294 2.5605 5.84173 2.34171C6.06052 2.12292 6.35727 2 6.66669 2H9.33335C9.64277 2 9.93952 2.12292 10.1583 2.34171C10.3771 2.5605 10.5 2.85725 10.5 3.16667V4.66667H13.3334C13.6095 4.66667 13.8334 4.89052 13.8334 5.16667C13.8334 5.44281 13.6095 5.66667 13.3334 5.66667H13.1268ZM6.66669 7.33333C6.94283 7.33333 7.16669 7.55719 7.16669 7.83333V11.8333C7.16669 12.1095 6.94283 12.3333 6.66669 12.3333C6.39054 12.3333 6.16669 12.1095 6.16669 11.8333V7.83333C6.16669 7.55719 6.39054 7.33333 6.66669 7.33333ZM9.33335 7.33333C9.6095 7.33333 9.83335 7.55719 9.83335 7.83333V11.8333C9.83335 12.1095 9.6095 12.3333 9.33335 12.3333C9.05721 12.3333 8.83335 12.1095 8.83335 11.8333V7.83333C8.83335 7.55719 9.05721 7.33333 9.33335 7.33333Z" fill="white"/>
</svg>
