<svg width="18" height="18" viewBox="0 0 18 18" fill="none" xmlns="http://www.w3.org/2000/svg">
    <path fill-rule="evenodd" clip-rule="evenodd"
        d="M6.5 2.125C5.00423 2.125 3.79167 3.33756 3.79167 4.83333C3.79167 6.3291 5.00423 7.54167 6.5 7.54167C7.99577 7.54167 9.20833 6.3291 9.20833 4.83333C9.20833 3.33756 7.99577 2.125 6.5 2.125ZM2.54167 4.83333C2.54167 2.64721 4.31387 0.875 6.5 0.875C8.68613 0.875 10.4583 2.64721 10.4583 4.83333C10.4583 7.01946 8.68613 8.79167 6.5 8.79167C4.31387 8.79167 2.54167 7.01946 2.54167 4.83333Z"
        fill="CurrentColor" />
    <path fill-rule="evenodd" clip-rule="evenodd"
        d="M4.83333 12.125C4.11504 12.125 3.42616 12.4103 2.91825 12.9183C2.41034 13.4262 2.125 14.115 2.125 14.8333V16.5C2.125 16.8452 1.84518 17.125 1.5 17.125C1.15482 17.125 0.875 16.8452 0.875 16.5V14.8333C0.875 13.7835 1.29204 12.7767 2.03437 12.0344C2.7767 11.292 3.78352 10.875 4.83333 10.875H8.16667C9.21648 10.875 10.2233 11.292 10.9656 12.0344C11.708 12.7767 12.125 13.7835 12.125 14.8333V16.5C12.125 16.8452 11.8452 17.125 11.5 17.125C11.1548 17.125 10.875 16.8452 10.875 16.5V14.8333C10.875 14.115 10.5897 13.4262 10.0817 12.9183C9.57384 12.4103 8.88496 12.125 8.16667 12.125H4.83333Z"
        fill="currentColor" />
    <path fill-rule="evenodd" clip-rule="evenodd"
        d="M11.7279 1.45331C11.8135 1.11892 12.154 0.917247 12.4884 1.00286C13.3398 1.22087 14.0945 1.71606 14.6334 2.41036C15.1723 3.10466 15.4649 3.95858 15.4649 4.8375C15.4649 5.71642 15.1723 6.57034 14.6334 7.26464C14.0945 7.95894 13.3398 8.45413 12.4884 8.67214C12.154 8.75775 11.8135 8.55608 11.7279 8.22169C11.6422 7.8873 11.8439 7.54682 12.1783 7.4612C12.7609 7.31204 13.2772 6.97322 13.646 6.49817C14.0147 6.02313 14.2149 5.43886 14.2149 4.8375C14.2149 4.23614 14.0147 3.65187 13.646 3.17682C13.2772 2.70178 12.7609 2.36296 12.1783 2.2138C11.8439 2.12818 11.6422 1.7877 11.7279 1.45331Z"
        fill="currentColor" />
    <path fill-rule="evenodd" clip-rule="evenodd"
        d="M13.3948 11.4688C13.4811 11.1345 13.822 10.9336 14.1562 11.0198C15.0022 11.2382 15.7521 11.7304 16.2891 12.4195C16.8261 13.1087 17.12 13.9561 17.125 14.8297L17.125 14.8333L17.125 16.5C17.125 16.8452 16.8452 17.125 16.5 17.125C16.1548 17.125 15.875 16.8452 15.875 16.5V14.8352C15.8712 14.2381 15.6701 13.6589 15.3031 13.1878C14.9356 12.7163 14.4225 12.3796 13.8438 12.2302C13.5095 12.1439 13.3086 11.803 13.3948 11.4688Z"
        fill="currentColor" />
</svg>