<svg width="24" height="24" viewBox="0 0 24 24" fill="none" xmlns="http://www.w3.org/2000/svg">
<path d="M12 4.00024C7.6741 4.00024 3.77319 7.00518 2.06223 11.6541C1.97926 11.8773 1.97926 12.1229 2.06223 12.3461C3.77319 16.9999 7.6741 19.9999 12 19.9999C16.3259 19.9999 20.2268 16.9999 21.9378 12.3461C22.0207 12.1229 22.0207 11.8773 21.9378 11.6541C20.2268 7.00518 16.3259 4.00024 12 4.00024ZM12 17.9999C8.62608 17.9999 5.54915 15.657 4.07218 12.0001C5.54915 8.34314 8.62608 6.0002 12 6.0002C15.3739 6.0002 18.4509 8.34314 19.9278 12.0001C18.4509 15.657 15.3739 17.9999 12 17.9999Z" fill="#C9C5CA"/>
<path d="M12 8.00024C11.2089 8.00024 10.4356 8.23483 9.7778 8.67435C9.12002 9.11387 8.60734 9.73857 8.3046 10.4695C8.00186 11.2003 7.92264 12.0046 8.07698 12.7805C8.23132 13.5564 8.61227 14.2691 9.17167 14.8285C9.73107 15.3879 10.4438 15.7689 11.2197 15.9232C11.9956 16.0775 12.7998 15.9983 13.5307 15.6956C14.2616 15.3928 14.8863 14.8802 15.3258 14.2224C15.7653 13.5646 15.9999 12.7913 15.9999 12.0002C15.9999 10.9393 15.5785 9.92192 14.8284 9.17179C14.0783 8.42166 13.0609 8.00024 12 8.00024ZM12 14.0001C11.6045 14.0001 11.2178 13.8828 10.8889 13.6631C10.56 13.4433 10.3037 13.1309 10.1523 12.7655C10.0009 12.4001 9.96134 11.9979 10.0385 11.61C10.1157 11.222 10.3062 10.8657 10.5859 10.586C10.8656 10.3063 11.2219 10.1158 11.6099 10.0386C11.9978 9.96146 12.3999 10.0011 12.7654 10.1524C13.1308 10.3038 13.4432 10.5601 13.6629 10.889C13.8827 11.2179 14 11.6046 14 12.0002C14 12.5306 13.7893 13.0393 13.4142 13.4143C13.0391 13.7894 12.5305 14.0001 12 14.0001Z" fill="#C9C5CA"/>
</svg>
