<svg width="20" height="20" viewBox="0 0 20 20" fill="none" xmlns="http://www.w3.org/2000/svg">
<path fill-rule="evenodd" clip-rule="evenodd" d="M6.71289 1.71272C7.14266 1.28295 7.72556 1.0415 8.33335 1.0415H11.6667C12.2745 1.0415 12.8574 1.28295 13.2871 1.71272C13.7169 2.14249 13.9583 2.72538 13.9583 3.33317V4.37484H15.8333C16.4411 4.37484 17.024 4.61628 17.4538 5.04605C17.8836 5.47582 18.125 6.05872 18.125 6.6665V11.0311C18.1252 11.0407 18.1252 11.0503 18.125 11.0598V14.9998C18.125 15.6076 17.8836 16.1905 17.4538 16.6203C17.024 17.0501 16.4411 17.2915 15.8333 17.2915H4.16668C3.55889 17.2915 2.976 17.0501 2.54623 16.6203C2.11646 16.1905 1.87501 15.6076 1.87501 14.9998V11.0598C1.87479 11.0503 1.87479 11.0407 1.87501 11.0311V6.6665C1.87501 6.05872 2.11646 5.47582 2.54623 5.04605C2.976 4.61628 3.55889 4.37484 4.16668 4.37484H6.04168V3.33317C6.04168 2.72538 6.28312 2.14249 6.71289 1.71272ZM7.29168 4.37484H12.7083V3.33317C12.7083 3.0569 12.5986 2.79195 12.4032 2.5966C12.2079 2.40125 11.9429 2.2915 11.6667 2.2915H8.33335C8.05708 2.2915 7.79213 2.40125 7.59678 2.5966C7.40143 2.79195 7.29168 3.0569 7.29168 3.33317V4.37484ZM4.16668 5.62484C3.89041 5.62484 3.62546 5.73458 3.43011 5.92993C3.23476 6.12528 3.12501 6.39024 3.12501 6.6665V10.6194C5.26139 11.4303 7.57772 11.8748 10 11.8748C12.3499 11.8777 14.6801 11.4518 16.875 10.6193V6.6665C16.875 6.39024 16.7653 6.12528 16.5699 5.92993C16.3746 5.73458 16.1096 5.62484 15.8333 5.62484H4.16668ZM10 13.1248C12.3441 13.1276 14.669 12.7297 16.875 11.9504L10 13.1248ZM16.875 11.9504V14.9998C16.875 15.2761 16.7653 15.5411 16.5699 15.7364C16.3746 15.9318 16.1096 16.0415 15.8333 16.0415H4.16668C3.89041 16.0415 3.62546 15.9318 3.43011 15.7364C3.23476 15.5411 3.12501 15.2761 3.12501 14.9998V11.9506C5.27616 12.7109 7.59012 13.1248 10 13.1248M9.37501 9.99984C9.37501 9.65466 9.65484 9.37484 10 9.37484H10.0083C10.3535 9.37484 10.6333 9.65466 10.6333 9.99984C10.6333 10.345 10.3535 10.6248 10.0083 10.6248H10C9.65484 10.6248 9.37501 10.345 9.37501 9.99984Z" fill="#A0AEC0"/>
</svg>
